<mxfile host="app.diagrams.net" agent="Mozilla/5.0 (Windows NT 10.0; Win64; x64) AppleWebKit/537.36 (KHTML, like Gecko) Chrome/133.0.0.0 Safari/537.36 OPR/118.0.0.0" version="27.0.9">
  <diagram name="Страница — 1" id="aBMtXrE2DwZhmUIhCfLv">
    <mxGraphModel dx="1385" dy="788" grid="1" gridSize="10" guides="1" tooltips="1" connect="1" arrows="1" fold="1" page="1" pageScale="1" pageWidth="827" pageHeight="1169" math="0" shadow="0">
      <root>
        <mxCell id="0" />
        <mxCell id="1" parent="0" />
        <mxCell id="nxVq_SW4b4N_cHl_gE7T-4" style="edgeStyle=orthogonalEdgeStyle;rounded=0;orthogonalLoop=1;jettySize=auto;html=1;" edge="1" parent="1" source="nxVq_SW4b4N_cHl_gE7T-1" target="nxVq_SW4b4N_cHl_gE7T-2">
          <mxGeometry relative="1" as="geometry" />
        </mxCell>
        <mxCell id="nxVq_SW4b4N_cHl_gE7T-5" style="edgeStyle=orthogonalEdgeStyle;rounded=0;orthogonalLoop=1;jettySize=auto;html=1;" edge="1" parent="1" source="nxVq_SW4b4N_cHl_gE7T-1" target="nxVq_SW4b4N_cHl_gE7T-3">
          <mxGeometry relative="1" as="geometry" />
        </mxCell>
        <mxCell id="nxVq_SW4b4N_cHl_gE7T-1" value="" style="strokeWidth=2;html=1;shape=mxgraph.flowchart.start_1;whiteSpace=wrap;" vertex="1" parent="1">
          <mxGeometry x="60" y="470" width="40" height="40" as="geometry" />
        </mxCell>
        <mxCell id="nxVq_SW4b4N_cHl_gE7T-7" style="edgeStyle=orthogonalEdgeStyle;rounded=0;orthogonalLoop=1;jettySize=auto;html=1;entryX=0;entryY=0.5;entryDx=0;entryDy=0;" edge="1" parent="1" source="nxVq_SW4b4N_cHl_gE7T-2" target="nxVq_SW4b4N_cHl_gE7T-6">
          <mxGeometry relative="1" as="geometry" />
        </mxCell>
        <mxCell id="nxVq_SW4b4N_cHl_gE7T-2" value="enter login" style="rounded=1;whiteSpace=wrap;html=1;" vertex="1" parent="1">
          <mxGeometry x="160" y="420" width="90" height="40" as="geometry" />
        </mxCell>
        <mxCell id="nxVq_SW4b4N_cHl_gE7T-8" style="edgeStyle=orthogonalEdgeStyle;rounded=0;orthogonalLoop=1;jettySize=auto;html=1;entryX=0;entryY=0.5;entryDx=0;entryDy=0;" edge="1" parent="1" source="nxVq_SW4b4N_cHl_gE7T-3" target="nxVq_SW4b4N_cHl_gE7T-6">
          <mxGeometry relative="1" as="geometry" />
        </mxCell>
        <mxCell id="nxVq_SW4b4N_cHl_gE7T-3" value="enter password" style="rounded=1;whiteSpace=wrap;html=1;" vertex="1" parent="1">
          <mxGeometry x="160" y="510" width="90" height="40" as="geometry" />
        </mxCell>
        <mxCell id="nxVq_SW4b4N_cHl_gE7T-10" style="edgeStyle=orthogonalEdgeStyle;rounded=0;orthogonalLoop=1;jettySize=auto;html=1;entryX=0;entryY=0.5;entryDx=0;entryDy=0;" edge="1" parent="1" source="nxVq_SW4b4N_cHl_gE7T-6" target="nxVq_SW4b4N_cHl_gE7T-9">
          <mxGeometry relative="1" as="geometry" />
        </mxCell>
        <mxCell id="nxVq_SW4b4N_cHl_gE7T-6" value="checking data" style="rounded=1;whiteSpace=wrap;html=1;" vertex="1" parent="1">
          <mxGeometry x="300" y="465" width="90" height="40" as="geometry" />
        </mxCell>
        <mxCell id="nxVq_SW4b4N_cHl_gE7T-12" style="edgeStyle=orthogonalEdgeStyle;rounded=0;orthogonalLoop=1;jettySize=auto;html=1;entryX=0;entryY=0.5;entryDx=0;entryDy=0;" edge="1" parent="1" source="nxVq_SW4b4N_cHl_gE7T-9" target="nxVq_SW4b4N_cHl_gE7T-11">
          <mxGeometry relative="1" as="geometry" />
        </mxCell>
        <mxCell id="nxVq_SW4b4N_cHl_gE7T-13" value="[session generation]" style="edgeLabel;html=1;align=center;verticalAlign=middle;resizable=0;points=[];" vertex="1" connectable="0" parent="nxVq_SW4b4N_cHl_gE7T-12">
          <mxGeometry x="0.2462" y="1" relative="1" as="geometry">
            <mxPoint as="offset" />
          </mxGeometry>
        </mxCell>
        <mxCell id="nxVq_SW4b4N_cHl_gE7T-15" style="edgeStyle=orthogonalEdgeStyle;rounded=0;orthogonalLoop=1;jettySize=auto;html=1;entryX=1;entryY=0.5;entryDx=0;entryDy=0;" edge="1" parent="1" source="nxVq_SW4b4N_cHl_gE7T-9" target="nxVq_SW4b4N_cHl_gE7T-14">
          <mxGeometry relative="1" as="geometry" />
        </mxCell>
        <mxCell id="nxVq_SW4b4N_cHl_gE7T-16" value="[error: incorrect data]" style="edgeLabel;html=1;align=center;verticalAlign=middle;resizable=0;points=[];" vertex="1" connectable="0" parent="nxVq_SW4b4N_cHl_gE7T-15">
          <mxGeometry x="-0.4074" y="2" relative="1" as="geometry">
            <mxPoint as="offset" />
          </mxGeometry>
        </mxCell>
        <mxCell id="nxVq_SW4b4N_cHl_gE7T-9" value="" style="rhombus;whiteSpace=wrap;html=1;" vertex="1" parent="1">
          <mxGeometry x="440" y="465" width="40" height="40" as="geometry" />
        </mxCell>
        <mxCell id="nxVq_SW4b4N_cHl_gE7T-11" value="open main menu" style="rounded=1;whiteSpace=wrap;html=1;" vertex="1" parent="1">
          <mxGeometry x="670" y="465" width="90" height="40" as="geometry" />
        </mxCell>
        <mxCell id="nxVq_SW4b4N_cHl_gE7T-17" style="edgeStyle=orthogonalEdgeStyle;rounded=0;orthogonalLoop=1;jettySize=auto;html=1;" edge="1" parent="1" source="nxVq_SW4b4N_cHl_gE7T-14">
          <mxGeometry relative="1" as="geometry">
            <mxPoint x="130" y="490" as="targetPoint" />
          </mxGeometry>
        </mxCell>
        <mxCell id="nxVq_SW4b4N_cHl_gE7T-14" value="open main menu" style="rounded=1;whiteSpace=wrap;html=1;" vertex="1" parent="1">
          <mxGeometry x="350" y="600" width="90" height="40" as="geometry" />
        </mxCell>
      </root>
    </mxGraphModel>
  </diagram>
</mxfile>
